HIERARCHY
ROOT Hips
{
	OFFSET -14.64140 90.27770 -84.91600
	CHANNELS 6 Xposition Yposition Zposition Zrotation Xrotation Yrotation
	JOINT Spine
	{
		OFFSET 0.00000 13.20850 -1.60436
		CHANNELS 3 Zrotation Xrotation Yrotation
		JOINT Spine1
		{
			OFFSET 0.00000 8.61716 0.00000
			CHANNELS 3 Zrotation Xrotation Yrotation
			JOINT Spine2
			{
				OFFSET 0.00000 8.61717 0.00000
				CHANNELS 3 Zrotation Xrotation Yrotation
				JOINT Spine3
				{
					OFFSET 0.00000 8.61717 0.00000
					CHANNELS 3 Zrotation Xrotation Yrotation
					JOINT Neck
					{
						OFFSET 0.00000 11.07920 1.10792
						CHANNELS 3 Zrotation Xrotation Yrotation
						JOINT Neck1
						{
							OFFSET 0.00000 7.08032 0.00000
							CHANNELS 3 Zrotation Xrotation Yrotation
							JOINT Head
							{
								OFFSET 0.00000 7.08031 0.00000
								CHANNELS 3 Zrotation Xrotation Yrotation
								End site
								{
									OFFSET 0.00000 0.00000 0.00000
								}
							}
						}
					}
					JOINT RightShoulder
					{
						OFFSET -0.01000 7.91373 5.19711
						CHANNELS 3 Zrotation Xrotation Yrotation
						JOINT RightArm
						{
							OFFSET -18.41580 0.00000 0.00000
							CHANNELS 3 Zrotation Xrotation Yrotation
							JOINT RightForeArm
							{
								OFFSET -29.11090 0.00000 0.00000
								CHANNELS 3 Zrotation Xrotation Yrotation
								JOINT RightHand
								{
									OFFSET -24.65040 0.00000 0.00000
									CHANNELS 3 Zrotation Xrotation Yrotation
									JOINT RightHandThumb1
									{
										OFFSET -5.35114 -0.85590 3.97906
										CHANNELS 3 Zrotation Xrotation Yrotation
										JOINT RightHandThumb2
										{
											OFFSET -4.52789 0.00000 0.00000
											CHANNELS 3 Zrotation Xrotation Yrotation
											JOINT RightHandThumb3
											{
												OFFSET -2.46976 0.00000 0.00000
												CHANNELS 3 Zrotation Xrotation Yrotation
												End site
												{
													OFFSET 0.00000 0.00000 0.00000
												}
											}
										}
									}
									JOINT RightHandIndex1
									{
										OFFSET -14.26970 0.00000 2.88139
										CHANNELS 3 Zrotation Xrotation Yrotation
										JOINT RightHandIndex2
										{
											OFFSET -5.48836 0.00000 0.00000
											CHANNELS 3 Zrotation Xrotation Yrotation
											JOINT RightHandIndex3
											{
												OFFSET -3.01859 0.00000 0.00000
												CHANNELS 3 Zrotation Xrotation Yrotation
												End site
												{
													OFFSET 0.00000 0.00000 0.00000
												}
											}
										}
									}
									JOINT RightHandMiddle1
									{
										OFFSET -14.26970 0.00000 -0.09147
										CHANNELS 3 Zrotation Xrotation Yrotation
										JOINT RightHandMiddle2
										{
											OFFSET -6.17441 0.00000 0.00000
											CHANNELS 3 Zrotation Xrotation Yrotation
											JOINT RightHandMiddle3
											{
												OFFSET -3.56743 0.00000 0.00000
												CHANNELS 3 Zrotation Xrotation Yrotation
												End site
												{
													OFFSET 0.00000 0.00000 0.00000
												}
											}
										}
									}
									JOINT RightHandRing1
									{
										OFFSET -12.69180 0.00000 -3.06433
										CHANNELS 3 Zrotation Xrotation Yrotation
										JOINT RightHandRing2
										{
											OFFSET -5.62556 0.00000 0.00000
											CHANNELS 3 Zrotation Xrotation Yrotation
											JOINT RightHandRing3
											{
												OFFSET -3.56744 0.00000 0.00000
												CHANNELS 3 Zrotation Xrotation Yrotation
												End site
												{
													OFFSET 0.00000 0.00000 0.00000
												}
											}
										}
									}
									JOINT RightHandPinky1
									{
										OFFSET -11.11390 0.00000 -6.03719
										CHANNELS 3 Zrotation Xrotation Yrotation
										JOINT RightHandPinky2
										{
											OFFSET -4.52789 0.00000 0.00000
											CHANNELS 3 Zrotation Xrotation Yrotation
											JOINT RightHandPinky3
											{
												OFFSET -2.46976 0.00000 0.00000
												CHANNELS 3 Zrotation Xrotation Yrotation
												End site
												{
													OFFSET 0.00000 0.00000 0.00000
												}
											}
										}
									}
								}
							}
						}
					}
					JOINT LeftShoulder
					{
						OFFSET 0.01000 7.91373 5.19711
						CHANNELS 3 Zrotation Xrotation Yrotation
						JOINT LeftArm
						{
							OFFSET 18.41580 0.00000 0.00000
							CHANNELS 3 Zrotation Xrotation Yrotation
							JOINT LeftForeArm
							{
								OFFSET 29.11090 0.00000 0.00000
								CHANNELS 3 Zrotation Xrotation Yrotation
								JOINT LeftHand
								{
									OFFSET 24.65040 0.00000 0.00000
									CHANNELS 3 Zrotation Xrotation Yrotation
									JOINT LeftHandThumb1
									{
										OFFSET 5.35114 -0.85590 3.97906
										CHANNELS 3 Zrotation Xrotation Yrotation
										JOINT LeftHandThumb2
										{
											OFFSET 4.52789 0.00000 0.00000
											CHANNELS 3 Zrotation Xrotation Yrotation
											JOINT LeftHandThumb3
											{
												OFFSET 2.46977 0.00000 0.00000
												CHANNELS 3 Zrotation Xrotation Yrotation
												End site
												{
													OFFSET 0.00000 0.00000 0.00000
												}
											}
										}
									}
									JOINT LeftHandIndex1
									{
										OFFSET 14.26970 0.00000 2.88139
										CHANNELS 3 Zrotation Xrotation Yrotation
										JOINT LeftHandIndex2
										{
											OFFSET 5.48836 0.00000 0.00000
											CHANNELS 3 Zrotation Xrotation Yrotation
											JOINT LeftHandIndex3
											{
												OFFSET 3.01859 0.00000 0.00000
												CHANNELS 3 Zrotation Xrotation Yrotation
												End site
												{
													OFFSET 0.00000 0.00000 0.00000
												}
											}
										}
									}
									JOINT LeftHandMiddle1
									{
										OFFSET 14.26970 0.00000 -0.09147
										CHANNELS 3 Zrotation Xrotation Yrotation
										JOINT LeftHandMiddle2
										{
											OFFSET 6.17440 0.00000 0.00000
											CHANNELS 3 Zrotation Xrotation Yrotation
											JOINT LeftHandMiddle3
											{
												OFFSET 3.56744 0.00000 0.00000
												CHANNELS 3 Zrotation Xrotation Yrotation
												End site
												{
													OFFSET 0.00000 0.00000 0.00000
												}
											}
										}
									}
									JOINT LeftHandRing1
									{
										OFFSET 12.69180 0.00000 -3.06433
										CHANNELS 3 Zrotation Xrotation Yrotation
										JOINT LeftHandRing2
										{
											OFFSET 5.62556 0.00000 0.00000
											CHANNELS 3 Zrotation Xrotation Yrotation
											JOINT LeftHandRing3
											{
												OFFSET 3.56744 0.00000 0.00000
												CHANNELS 3 Zrotation Xrotation Yrotation
												End site
												{
													OFFSET 0.00000 0.00000 0.00000
												}
											}
										}
									}
									JOINT LeftHandPinky1
									{
										OFFSET 11.11390 0.00000 -6.03719
										CHANNELS 3 Zrotation Xrotation Yrotation
										JOINT LeftHandPinky2
										{
											OFFSET 4.52789 0.00000 0.00000
											CHANNELS 3 Zrotation Xrotation Yrotation
											JOINT LeftHandPinky3
											{
												OFFSET 2.46976 0.00000 0.00000
												CHANNELS 3 Zrotation Xrotation Yrotation
												End site
												{
													OFFSET 0.00000 0.00000 0.00000
												}
											}
										}
									}
								}
							}
						}
					}
					JOINT pCube4
					{
						OFFSET 0.00000 10.91090 1.10792
						CHANNELS 3 Zrotation Xrotation Yrotation
						End site
						{
							OFFSET 0.00000 0.00000 0.00000
						}
					}
				}
			}
		}
	}
	JOINT RightUpLeg
	{
		OFFSET -9.98441 0.00000 0.00000
		CHANNELS 3 Zrotation Xrotation Yrotation
		JOINT RightLeg
		{
			OFFSET 0.00000 -42.11790 0.00000
			CHANNELS 3 Zrotation Xrotation Yrotation
			JOINT RightFoot
			{
				OFFSET 0.00000 -45.00020 -0.00001
				CHANNELS 3 Zrotation Xrotation Yrotation
				JOINT RightForeFoot
				{
					OFFSET 0.00000 -3.74820 0.00000
					CHANNELS 3 Zrotation Xrotation Yrotation
					JOINT RightToeBase
					{
						OFFSET 0.00000 0.06325 14.43120
						CHANNELS 3 Zrotation Xrotation Yrotation
						End site
						{
							OFFSET 0.00000 0.00000 0.00000
						}
					}
				}
			}
		}
	}
	JOINT LeftUpLeg
	{
		OFFSET 9.98441 0.00000 0.00000
		CHANNELS 3 Zrotation Xrotation Yrotation
		JOINT LeftLeg
		{
			OFFSET 0.00000 -42.11800 0.00000
			CHANNELS 3 Zrotation Xrotation Yrotation
			JOINT LeftFoot
			{
				OFFSET 0.00000 -45.00070 0.00000
				CHANNELS 3 Zrotation Xrotation Yrotation
				JOINT LeftForeFoot
				{
					OFFSET 0.00000 -3.74824 0.00000
					CHANNELS 3 Zrotation Xrotation Yrotation
					JOINT LeftToeBase
					{
						OFFSET 0.00000 0.06325 14.43110
						CHANNELS 3 Zrotation Xrotation Yrotation
						End site
						{
							OFFSET 0.00000 0.00000 0.00000
						}
					}
				}
			}
		}
	}
}
MOTION
Frames: 4
Frame Time: 0.050000
0.037177942542710014 0.00629961987226384 -0.007111794689035368 0.018885521152248473 -0.024665615152151776 -0.004229131353579338 1.7017258375705702 1.7565269000959007 -1.7028982067850267 -0.712219408710166 3.5973828855488454 0.3658090098626621 -0.801547180984431 -1.3691337682397777 0.9235888938424099 -0.734013085225315 -0.4980306387334942 -0.33071837261507103 0.13798551761853103 11.98363984150787 -0.920977614236601 0.46557247350459635 -0.4390440447125826 -2.514996171233231 0.7943490648125634 -16.12003525907472 -0.2332314311231816 -7.00877011404277 2.6864487653365017 -16.558665546027107 77.04015674569925 1.1144575067233038 9.034408392406627 -19.18204541362344 6.992949388079622 79.19475725921471 8.015379587461279 0.4147525837561102 3.8718961068976747 4.499896594577395 -0.13387745513192134 -1.5983675544007339 0.0032102694872719693 0.04441742871368738 -56.27231616177844 -0.007117244375505837 0.020805672627557815 -56.28349051682312 -38.794256586824254 0.04412197191573584 -0.018206712821765787 -0.04132801715824373 -0.0062947304903594944 0.038937570779962884 -0.04483106580682632 -0.04919135172332847 -0.016572933085317775 -36.69186166732886 0.015888587240464835 -0.02019802263002238 0.04724586095018021 0.02982641417453271 0.022972820442432144 -0.01082916335460893 -0.04872762088945792 0.02260300749924764 -19.78242144057146 0.02531164045144469 -0.004065220040719144 0.011118686976164454 0.011293182462986367 0.015991953994310987 -0.015511976698278761 0.027371322557149518 -0.023678126403904667 24.007261109672168 0.0009076125328595751 -0.04697477599804806 28.863702588897237 -0.04476275820767226 0.043729382740633614 28.87192378608598 -0.011531740737438467 0.03188269008523987 6.682869634778389 1.699127040416722 14.401147490534175 -75.92095220445306 19.24979590073812 -9.370722714354084 15.115918641021512 4.064075426596389 -57.885953578279704 -15.89950214396355 6.694940184002977 -2.998067694582557 -0.5155605692838113 0.11726499829531101 -8.156612451299852 -0.014763217372998355 0.04278374548220096 44.55985896927039 0.0038929571426241836 0.016158215431418158 44.56774333544003 12.458762480850558 0.016479978596630692 -0.014406328762706085 0.035903246321232304 0.006413684050332445 -0.024813532125441545 -0.03831562660464804 -0.012552047052397106 -0.01223523234738297 11.064082863227698 0.018146478129764915 0.028657298538515733 0.00629421377349615 -0.017883835438122386 -0.024443303945608577 -0.01695743660318776 0.02151718937645479 -0.0406824042346372 4.743551007142525 -0.04794648046249052 -0.03819069379898424 -0.0371184244550769 0.010201578873615436 -0.011683969959347756 -0.0077515860518575655 0.044542947096156145 0.045422765846714216 -5.559897288446499 0.012803612811595375 0.035657645879037914 -6.70765012866961 0.04558946125204633 -0.014552986333658641 -6.704976789320355 0.004949776696656277 -0.04403002940415712 0.016939075351016294 0.019720339414362385 -0.020764978341772412 7.9991361907059995 3.4454549920239717 -19.190205355472322 -0.01267634971315719 10.417539235099227 -0.0002211209673602145 -5.653201320883602 -15.637054508640785 3.216849781882567 -0.03457228674570415 0.00403870624316799 0.027115683603955793 0.015560527486711386 4.670358332085179 0.010510568556649768 12.465253639082116 -8.227993860952827 6.877392259332084 -0.033520006228754826 46.428086618430186 0.012673166376927638 -4.328698226658164 -14.781648464256232 -3.8274595439831467 -0.03294512850460792 0.028923680878289504 0.031761721951901856 -0.03733226903916501 -10.79393670393155 0.025407779386444364 
-0.021784970455972275 0.03794127812191028 -0.0008675482985696681 0.03659940988677545 0.005132295897728827 -0.04064285105252902 1.4786763439498185 1.6884468288310719 -1.6316064177751524 -0.6471225425298855 3.6814991956036796 0.32819525860450094 -0.8355992194315867 -1.3788849466300355 0.9533890100276752 -0.7861914877591492 -0.6528661737215806 -0.3770867548356394 0.13949950360671248 12.161471774472082 -0.9115212514020679 0.40410159218124925 -0.5420390465925985 -2.575016183802928 0.8030541522478719 -16.118199418908493 -0.1931603130546264 -6.425843219969427 2.4956901500876625 -16.47143553171985 77.13561730314147 0.6798612052229706 8.697234485455873 -19.218581526875646 8.011884490341373 75.25060320681874 9.038195460060043 0.5010304566017775 4.468187002170154 4.519752089183582 -0.1581655518282304 -1.5444479047175206 0.036894929621150235 0.0042087445692717395 -56.206118899921286 -0.035618193573497256 0.038230162444101545 -56.229981762429816 -38.7713084946925 -0.009477722082399683 0.019832559505974717 0.005072250812280794 -0.028712184099672116 0.02808217357352572 0.021298225875504787 0.029941058929770965 -0.0381201118301024 -36.65062282018352 0.011951229503614498 0.035192118308988996 0.01287605952612182 0.03911307509072645 -0.00025662909193980817 -0.0448237024220351 0.033740223562594436 -0.007293871510757966 -19.723437712268407 -0.027908389715671014 -0.00740230484630925 -0.002562897882540523 -0.022416209021403115 0.04185669698093057 0.028465358747483505 -0.0066534398384389916 -0.012656844418202222 24.09065124212461 0.046927982180162316 -0.005593494521312872 28.869808410073826 0.04996329556890626 0.03772481730891352 28.865020474243824 0.04745070434107225 0.021797826488974097 6.301753158214974 1.6825255992496957 14.476711263219283 -76.59395100808413 17.570640868890806 -9.069814250637627 15.50454522419029 6.6946222954710075 -55.47796499032277 -17.018359971039168 8.774796330698713 -4.217079900437377 -0.45067050199070646 0.05773736124036687 -8.120451862672894 0.03138170971876896 -0.033107348930688694 44.54765876287753 0.024235117089478384 0.04732638438424324 44.54457706386577 12.411213644434573 0.02742463386964983 -0.007978025202240523 0.005280564585136402 0.034158565759088516 0.018718079906510626 2.589359527676244e-05 -0.03246139055052198 0.003557516164487056 11.13973631993337 -0.029063232878122996 -0.04591658313779576 -0.005816198434012865 0.03536152537002683 0.005961560275824799 0.029003628302074244 -0.021982617058908756 -0.04791032099818027 4.7426990400014395 -0.01490889426307346 -0.021345368544769816 -0.049247110435484194 -0.000974725721805876 -0.028750176922312895 0.009763118317914248 -0.0009806388269704154 0.019900336362298668 -5.628859874111911 -0.002994232692944911 0.009484242141729625 -6.699735822157951 -0.03289515025647951 -0.025643226161811583 -6.713600376379579 0.013813166012177278 -0.03681563101764788 -0.031532813754511495 0.024301737101837795 0.022746802214875537 8.035408665584713 3.458451595383919 -19.19431833932646 -0.02717554123804274 10.44402304486678 -0.03164640519734782 -5.6394983331105175 -15.644338589423029 3.206255234502457 0.0021882097780902346 -0.0034958866885406946 -0.03709896998845043 -0.028459009930361268 4.741651053262992 -0.04022333824226767 12.444317779651442 -8.273772239908283 6.891848173012781 0.02903045387593247 46.38013033034993 -0.0046885405127529995 -4.359709548230154 -14.793416802002866 -3.8222977881632043 -0.008790817360138061 0.04925691995602226 -0.04057181017474965 -0.002579041379564706 -10.794899998271632 -0.028064213125838722 
-0.01903040078160681 -0.001998109358401328 -0.02853760341117 -0.04990829204074342 0.03835207835634293 0.03809236419050326 0.8698509967658976 1.5979563007407969 -1.5678818975685893 -0.6092516911915595 3.688522317851886 0.31010234417907157 -0.7503865548312393 -1.4529441870746689 0.974736829860976 -0.7307866012506551 -0.6011032044498497 -0.39025635064218184 0.09756288084549669 12.266255662094796 -0.9055882818392196 0.46001202369321065 -0.5626638045856787 -2.762982969712188 0.8673797083677749 -16.093619590968185 -0.22826732095425803 -5.534326622080944 2.2487660886633467 -16.179926758953656 76.71011771835956 1.590929417323602 8.469972230856778 -19.205781363034923 8.559515314449618 73.67894497405996 10.131499633859416 0.4569145621807412 4.73545589593343 4.512133425571853 -0.13019938788287033 -1.6148801878687014 -0.04961061241165237 0.03531980916826498 -56.23513238819142 0.0391009554411887 -0.03963236013853338 -56.23247381224485 -38.79958346833254 0.006043283500262574 -0.04990525712610188 0.04210892466212458 -0.014736396717959293 0.04924273511365095 0.0306709685993976 0.02717799795167841 -0.021170181973804117 -36.72287219263179 0.048480350743475564 0.04187012419722928 -0.023210400143283755 -0.04770029927979788 -0.03313764772469768 0.009371438788929914 0.020914848449943874 0.04534291683134646 -19.77575079054027 0.03810741804926233 0.025211055025669078 0.025556156664168366 -0.023757475243520062 0.006769872133481786 0.02929691750073123 0.00108542415542184 -0.001705475949189567 24.037679663571843 0.028764387527905402 -0.004940164737363477 28.89363245858774 -0.023129425384897016 -0.008563567800602813 28.85677102157721 -0.0022610656363341083 0.020649231950731324 5.631279314136204 1.5723497819971013 14.48670385995505 -76.8835458697653 16.873850014937517 -9.012151399085262 15.866990188675663 7.674262214516101 -55.90931557750995 -17.9832715113595 10.570024128906226 -5.466615851750563 -0.49187595586668104 0.08610445503896036 -8.156214241866325 0.011003593278052153 0.03282691433410142 44.60496640612105 -0.02032418765291416 0.004953382854324243 44.548193099358485 12.419244179327961 -0.01405929020054365 0.00645506330471319 0.016350014616285633 0.023944789234281297 0.0013250471384117768 0.006437332776725211 0.016948350702079795 -0.027769984092021294 11.148361360632856 0.010350519567558765 -0.04551220881106156 0.017544445384279714 0.005576303620387718 -0.016320490606944477 -0.03771970393578647 -0.020280768323305467 0.0013114093169427775 4.803897326173703 0.014456202707721863 0.00790593124440296 0.034505312965683106 0.018298382340582574 0.0020933512999479157 -0.025385834998807262 -0.0335737147342204 0.02936322299377117 -5.590597817246155 -0.02766354752064823 0.0152931043357717 -6.672721125128851 0.013393978103002453 0.023738913796051392 -6.7265387304532895 0.0018865208781466065 0.03421148437220208 -0.014094086495886615 -0.04933125875809 0.018279050738078912 8.08811881866814 3.5018972189844693 -19.182067519313467 -0.017644381842088597 10.398448545041452 0.04174278711731255 -5.6059841900921805 -15.654956067759189 3.2305023459983517 0.048575546505955726 0.04467168248845318 -0.023421761153323208 0.043706022635193284 4.704243840792983 0.003094051768038231 12.454762497220457 -8.234205149399852 6.915521553180562 -0.04233746985290947 46.41606300925131 0.02919994603666287 -4.314591578940518 -14.724398519482069 -3.835455873242448 -0.01567414533351221 -0.0036683953827124543 0.013687004788781956 0.0185514282429802 -10.791107512313149 -0.006160974746070934 
-0.0012696667280751148 -0.005308217809884887 0.023456781313008865 -0.042682843839087346 -0.018207344455783158 0.047342188329952094 0.19208886071585332 1.4276648344215466 -1.448512198923446 -0.6094556848455774 3.8393347121246992 0.32028797033366246 -0.7571659476982574 -1.5904305611249805 0.9494269711306316 -0.7521394547992832 -0.6701544323879907 -0.3667004034348257 0.12875496881542658 12.431460072998343 -0.9648179718761032 0.48500996742463165 -0.5283233864768875 -3.007747444869841 0.8708700836450562 -15.969463211016778 -0.3094928488366366 -4.387085049414786 1.898116606112397 -15.79240297048629 75.58286326591706 3.463498747558689 8.553464248866877 -18.80579127603348 8.604987568122633 75.13660928663211 11.174591622739863 0.39462026779119247 4.744514041589536 4.534821413254791 -0.13077311325012753 -1.5735358796287662 0.0006460275252816628 -0.008827964696323968 -56.2730117482142 -0.019068448828275984 0.002451571588108571 -56.282099279918185 -38.79529301631833 -0.028444706572030777 0.00798015539909028 -0.023592207136022773 -0.00827234474450591 0.030101391849530437 -0.04041596011175404 0.029506522392390995 0.03978944185576662 -36.70688985242091 0.0324548098643949 0.006885009131701848 0.020398126876158263 -0.009961962381059125 -0.011291831296573088 0.041987552423189536 -0.023481289557599 -0.012153792457680555 -19.806086406539055 -0.035332418074128624 -0.027825390704741045 0.010971130640003567 -0.0030901454319256397 -0.03559228180315193 0.01623811967258297 -0.007118748389284675 0.03518043024359851 24.070876094071874 -0.038058103799503584 -0.02606121229489929 28.869525358482388 0.04992443460716379 -0.011574762494324507 28.859415246186558 -0.004270258342600089 -0.006808403249361951 4.946006565557606 1.464666382817598 14.411635559263862 -76.72617211957548 17.546471366231444 -8.927457197770487 16.57420063771483 6.384473749198518 -59.84605079139796 -18.401540625567254 11.758624701134226 -6.6261297732958395 -0.5029714470731326 0.035428838689369704 -8.11046267676629 0.022287042311014704 0.004977009732237488 44.54835797761761 0.006927687279029429 -0.018174404793501173 44.52411968754998 12.450756383856621 0.011201306382244057 0.002557090416480606 -0.010795877772887617 -0.04167608798762855 -0.007002688264877562 -0.014025516372977026 0.03213704204955209 0.005713774086567049 11.098797558137669 -0.02683389269850051 0.047725466586846 0.018028765690571578 0.04818555509858431 -0.007533466426458732 0.04231920781824743 0.04911933482457273 -0.014519467871014019 4.750649703351235 0.014591263357432785 0.0054678674278253086 0.02203185632434149 0.012544792352009823 0.04410467449803823 0.04295992795518859 0.01755226393199196 -0.04321025372475863 -5.634885868529296 0.04987856906772437 -0.04998888029351229 -6.761725858118142 -0.008991377371965316 0.016883305269860455 -6.689118959989841 0.03639132316854436 0.018248510791530403 -0.01765483275023198 0.034523357555962725 -0.03355503834872383 8.018758052735496 3.5266959442387362 -19.24483163133928 -0.007705282241062942 10.414817064823822 0.02541626475245266 -5.5954708776634545 -15.671467090927015 3.1983291485979937 0.024026969308698583 -0.001742493148917742 -0.031248588542384513 0.016289717470165502 4.704408419137877 0.04719675283204883 12.456847903889667 -8.278146499453111 6.866325845140109 0.023715224841308703 46.38312180182601 0.04318838881937354 -4.328839563113836 -14.757588852327704 -3.846216131069613 -0.04345483513584206 0.022148035080609866 -0.008053861238102766 0.018661064343921185 -10.792779825920901 -0.044903507071333226 
